<svg width="165" height="19" viewBox="0 0 165 19" fill="none" xmlns="http://www.w3.org/2000/svg">
<path d="M0 18.75V1.29545H7.53409C8.82955 1.29545 9.96307 1.55114 10.9347 2.0625C11.9063 2.57386 12.6619 3.29261 13.2017 4.21875C13.7415 5.14489 14.0114 6.22727 14.0114 7.46591C14.0114 8.71591 13.733 9.7983 13.1761 10.7131C12.625 11.6278 11.8494 12.3324 10.8494 12.8267C9.85511 13.321 8.69318 13.5682 7.36364 13.5682H2.86364V9.88636H6.40909C6.96591 9.88636 7.44034 9.78977 7.83239 9.59659C8.23011 9.39773 8.53409 9.11648 8.74432 8.75284C8.96023 8.3892 9.06818 7.96023 9.06818 7.46591C9.06818 6.96591 8.96023 6.53977 8.74432 6.1875C8.53409 5.82955 8.23011 5.55682 7.83239 5.36932C7.44034 5.17614 6.96591 5.07954 6.40909 5.07954H4.73864V18.75H0ZM15.2182 18.75V5.65909H19.7864V8.14773H19.9227C20.1614 7.22727 20.5392 6.55398 21.0562 6.12784C21.579 5.7017 22.1898 5.48864 22.8886 5.48864C23.0932 5.48864 23.2949 5.50568 23.4937 5.53977C23.6983 5.56818 23.8943 5.6108 24.0818 5.66761V9.68182C23.8489 9.60227 23.5619 9.54261 23.221 9.50284C22.8801 9.46307 22.5875 9.44318 22.3432 9.44318C21.883 9.44318 21.4682 9.5483 21.0989 9.75852C20.7352 9.96307 20.4483 10.2528 20.2381 10.6278C20.0278 10.9972 19.9227 11.4318 19.9227 11.9318V18.75H15.2182ZM30.5472 18.9886C29.1494 18.9886 27.9449 18.7216 26.9335 18.1875C25.9278 17.6477 25.1523 16.875 24.6068 15.8693C24.067 14.858 23.7972 13.6477 23.7972 12.2386C23.7972 10.8864 24.0699 9.70455 24.6153 8.69318C25.1608 7.68182 25.9307 6.89489 26.925 6.33239C27.9193 5.76989 29.0926 5.48864 30.4449 5.48864C31.4335 5.48864 32.3284 5.64205 33.1295 5.94886C33.9307 6.25568 34.6153 6.7017 35.1835 7.28693C35.7517 7.86648 36.1892 8.57102 36.496 9.40057C36.8028 10.2301 36.9562 11.1648 36.9562 12.2045V13.2955H25.2631V10.7045H32.6267C32.621 10.3295 32.5244 10 32.3369 9.71591C32.1551 9.42614 31.908 9.2017 31.5955 9.04261C31.2886 8.87784 30.9392 8.79545 30.5472 8.79545C30.1665 8.79545 29.817 8.87784 29.4989 9.04261C29.1807 9.2017 28.925 9.4233 28.7318 9.70739C28.5443 9.99148 28.4449 10.3239 28.4335 10.7045V13.5C28.4335 13.9205 28.5216 14.2955 28.6977 14.625C28.8739 14.9545 29.1267 15.2131 29.4562 15.4006C29.7858 15.5881 30.1835 15.6818 30.6494 15.6818C30.9733 15.6818 31.2687 15.6364 31.5358 15.5455C31.8085 15.4545 32.0415 15.3239 32.2347 15.1534C32.4278 14.9773 32.5699 14.767 32.6608 14.5227H36.9562C36.8085 15.4318 36.4591 16.2216 35.908 16.892C35.3568 17.5568 34.6267 18.0739 33.7176 18.4432C32.8142 18.8068 31.7574 18.9886 30.5472 18.9886ZM44.5828 18.9886C43.1624 18.9886 41.9464 18.7074 40.9351 18.1449C39.9237 17.5767 39.1482 16.7869 38.6084 15.7756C38.0686 14.7585 37.7987 13.5795 37.7987 12.2386C37.7987 10.8977 38.0686 9.72159 38.6084 8.71023C39.1482 7.69318 39.9237 6.90341 40.9351 6.34091C41.9464 5.77273 43.1624 5.48864 44.5828 5.48864C45.8669 5.48864 46.9777 5.72159 47.9152 6.1875C48.8584 6.64773 49.5885 7.30114 50.1055 8.14773C50.6226 8.98864 50.884 9.97727 50.8896 11.1136H46.526C46.4635 10.4261 46.2646 9.90341 45.9294 9.54545C45.5999 9.18182 45.1737 9 44.651 9C44.2419 9 43.8839 9.11932 43.5771 9.35795C43.2703 9.59091 43.0317 9.94602 42.8612 10.4233C42.6908 10.8949 42.6055 11.4886 42.6055 12.2045C42.6055 12.9205 42.6908 13.517 42.8612 13.9943C43.0317 14.4659 43.2703 14.821 43.5771 15.0597C43.8839 15.2926 44.2419 15.4091 44.651 15.4091C44.9976 15.4091 45.3044 15.3295 45.5714 15.1705C45.8385 15.0057 46.0544 14.767 46.2192 14.4545C46.3896 14.1364 46.4919 13.75 46.526 13.2955H50.8896C50.8726 14.4489 50.6084 15.4545 50.097 16.3125C49.5857 17.1648 48.8612 17.8239 47.9237 18.2898C46.9919 18.7557 45.8783 18.9886 44.5828 18.9886ZM52.2307 18.75V5.65909H56.9352V18.75H52.2307ZM54.583 4.29545C53.9466 4.29545 53.4011 4.08523 52.9466 3.66477C52.492 3.24432 52.2648 2.73864 52.2648 2.14773C52.2648 1.55682 52.492 1.05114 52.9466 0.630681C53.4011 0.210227 53.9466 0 54.583 0C55.225 0 55.7705 0.210227 56.2193 0.630681C56.6739 1.05114 56.9011 1.55682 56.9011 2.14773C56.9011 2.73864 56.6739 3.24432 56.2193 3.66477C55.7705 4.08523 55.225 4.29545 54.583 4.29545ZM70.6982 9.92045H66.3686C66.3459 9.65341 66.2521 9.4233 66.0874 9.23011C65.9226 9.03693 65.7095 8.8892 65.4482 8.78693C65.1925 8.67898 64.9084 8.625 64.5959 8.625C64.1925 8.625 63.8459 8.69886 63.5561 8.84659C63.2663 8.99432 63.1243 9.20455 63.13 9.47727C63.1243 9.67045 63.2067 9.84943 63.3771 10.0142C63.5533 10.179 63.8913 10.3068 64.3913 10.3977L67.0504 10.875C68.3913 11.1193 69.3885 11.5312 70.0419 12.1108C70.701 12.6847 71.0334 13.4545 71.0391 14.4205C71.0334 15.3523 70.755 16.1619 70.2038 16.8494C69.6584 17.5312 68.9112 18.0597 67.9624 18.4347C67.0192 18.804 65.9425 18.9886 64.7322 18.9886C62.7322 18.9886 61.1669 18.5795 60.0362 17.7614C58.9112 16.9432 58.2834 15.8636 58.1527 14.5227H62.8232C62.8857 14.9375 63.0902 15.2585 63.4368 15.4858C63.7891 15.7074 64.2322 15.8182 64.7663 15.8182C65.1982 15.8182 65.5533 15.7443 65.8317 15.5966C66.1158 15.4489 66.2607 15.2386 66.2663 14.9659C66.2607 14.7159 66.1357 14.517 65.8913 14.3693C65.6527 14.2216 65.2777 14.1023 64.7663 14.0114L62.4482 13.6023C61.1129 13.3693 60.1129 12.9261 59.4482 12.2727C58.7834 11.6193 58.4538 10.7784 58.4595 9.75C58.4538 8.84091 58.6925 8.07102 59.1754 7.44034C59.6641 6.80398 60.3601 6.32102 61.2635 5.99148C62.1726 5.65625 63.2493 5.48864 64.4936 5.48864C66.3857 5.48864 67.8771 5.88068 68.968 6.66477C70.0646 7.44886 70.6413 8.53409 70.6982 9.92045ZM72.2416 18.75V5.65909H76.9462V18.75H72.2416ZM74.5939 4.29545C73.9575 4.29545 73.4121 4.08523 72.9575 3.66477C72.503 3.24432 72.2757 2.73864 72.2757 2.14773C72.2757 1.55682 72.503 1.05114 72.9575 0.630681C73.4121 0.210227 73.9575 0 74.5939 0C75.2359 0 75.7814 0.210227 76.2303 0.630681C76.6848 1.05114 76.9121 1.55682 76.9121 2.14773C76.9121 2.73864 76.6848 3.24432 76.2303 3.66477C75.7814 4.08523 75.2359 4.29545 74.5939 4.29545ZM85.05 18.9886C83.6295 18.9886 82.4136 18.7074 81.4023 18.1449C80.3909 17.5767 79.6153 16.7869 79.0756 15.7756C78.5358 14.7585 78.2659 13.5795 78.2659 12.2386C78.2659 10.8977 78.5358 9.72159 79.0756 8.71023C79.6153 7.69318 80.3909 6.90341 81.4023 6.34091C82.4136 5.77273 83.6295 5.48864 85.05 5.48864C86.4705 5.48864 87.6864 5.77273 88.6977 6.34091C89.7091 6.90341 90.4847 7.69318 91.0244 8.71023C91.5642 9.72159 91.8341 10.8977 91.8341 12.2386C91.8341 13.5795 91.5642 14.7585 91.0244 15.7756C90.4847 16.7869 89.7091 17.5767 88.6977 18.1449C87.6864 18.7074 86.4705 18.9886 85.05 18.9886ZM85.0841 15.5114C85.4818 15.5114 85.8256 15.3778 86.1153 15.1108C86.4051 14.8437 86.6295 14.4631 86.7886 13.9688C86.9477 13.4744 87.0273 12.8864 87.0273 12.2045C87.0273 11.517 86.9477 10.929 86.7886 10.4403C86.6295 9.94602 86.4051 9.56534 86.1153 9.2983C85.8256 9.03125 85.4818 8.89773 85.0841 8.89773C84.6636 8.89773 84.3028 9.03125 84.0017 9.2983C83.7006 9.56534 83.4705 9.94602 83.3114 10.4403C83.1523 10.929 83.0727 11.517 83.0727 12.2045C83.0727 12.8864 83.1523 13.4744 83.3114 13.9688C83.4705 14.4631 83.7006 14.8437 84.0017 15.1108C84.3028 15.3778 84.6636 15.5114 85.0841 15.5114ZM97.8477 11.3864V18.75H93.1432V5.65909H97.6091V8.14773H97.7455C98.0295 7.31818 98.5295 6.66761 99.2455 6.19602C99.967 5.72443 100.808 5.48864 101.768 5.48864C102.694 5.48864 103.498 5.7017 104.18 6.12784C104.868 6.5483 105.399 7.12784 105.774 7.86648C106.155 8.60511 106.342 9.44886 106.336 10.3977V18.75H101.632V11.3864C101.637 10.7386 101.473 10.2301 101.137 9.8608C100.808 9.49148 100.348 9.30682 99.7568 9.30682C99.3705 9.30682 99.0324 9.39205 98.7426 9.5625C98.4585 9.72727 98.2398 9.96591 98.0864 10.2784C97.933 10.5852 97.8534 10.9545 97.8477 11.3864ZM117.4 6.75C117.354 6.18182 117.141 5.73864 116.761 5.42045C116.386 5.10227 115.814 4.94318 115.047 4.94318C114.559 4.94318 114.158 5.00284 113.846 5.12216C113.539 5.2358 113.312 5.39205 113.164 5.59091C113.016 5.78977 112.939 6.01705 112.934 6.27273C112.922 6.48295 112.959 6.6733 113.045 6.84375C113.136 7.00852 113.278 7.15909 113.471 7.29545C113.664 7.42614 113.911 7.54545 114.212 7.65341C114.513 7.76136 114.871 7.85795 115.286 7.94318L116.718 8.25C117.684 8.45455 118.511 8.72443 119.198 9.05966C119.886 9.39489 120.448 9.78977 120.886 10.2443C121.323 10.6932 121.644 11.1989 121.849 11.7614C122.059 12.3239 122.167 12.9375 122.172 13.6023C122.167 14.75 121.88 15.7216 121.312 16.517C120.743 17.3125 119.931 17.9176 118.874 18.3324C117.823 18.7472 116.559 18.9545 115.082 18.9545C113.564 18.9545 112.241 18.7301 111.11 18.2812C109.985 17.8324 109.11 17.142 108.485 16.2102C107.866 15.2727 107.553 14.0739 107.547 12.6136H112.047C112.076 13.1477 112.209 13.5966 112.448 13.9602C112.687 14.3239 113.022 14.5994 113.454 14.7869C113.891 14.9744 114.411 15.0682 115.013 15.0682C115.519 15.0682 115.942 15.0057 116.283 14.8807C116.624 14.7557 116.883 14.5824 117.059 14.3608C117.235 14.1392 117.326 13.8864 117.332 13.6023C117.326 13.3352 117.238 13.1023 117.067 12.9034C116.903 12.6989 116.63 12.517 116.249 12.358C115.868 12.1932 115.354 12.0398 114.707 11.8977L112.968 11.5227C111.422 11.1875 110.204 10.6278 109.312 9.84375C108.425 9.05398 107.985 7.97727 107.991 6.61364C107.985 5.50568 108.28 4.53693 108.877 3.70739C109.479 2.87216 110.312 2.22159 111.374 1.75568C112.442 1.28977 113.667 1.05682 115.047 1.05682C116.457 1.05682 117.675 1.29261 118.704 1.7642C119.732 2.2358 120.525 2.90057 121.082 3.75852C121.644 4.6108 121.928 5.60795 121.934 6.75H117.4ZM129.75 18.9886C128.33 18.9886 127.114 18.7074 126.102 18.1449C125.091 17.5767 124.315 16.7869 123.776 15.7756C123.236 14.7585 122.966 13.5795 122.966 12.2386C122.966 10.8977 123.236 9.72159 123.776 8.71023C124.315 7.69318 125.091 6.90341 126.102 6.34091C127.114 5.77273 128.33 5.48864 129.75 5.48864C131.034 5.48864 132.145 5.72159 133.082 6.1875C134.026 6.64773 134.756 7.30114 135.273 8.14773C135.79 8.98864 136.051 9.97727 136.057 11.1136H131.693C131.631 10.4261 131.432 9.90341 131.097 9.54545C130.767 9.18182 130.341 9 129.818 9C129.409 9 129.051 9.11932 128.744 9.35795C128.438 9.59091 128.199 9.94602 128.028 10.4233C127.858 10.8949 127.773 11.4886 127.773 12.2045C127.773 12.9205 127.858 13.517 128.028 13.9943C128.199 14.4659 128.438 14.821 128.744 15.0597C129.051 15.2926 129.409 15.4091 129.818 15.4091C130.165 15.4091 130.472 15.3295 130.739 15.1705C131.006 15.0057 131.222 14.767 131.386 14.4545C131.557 14.1364 131.659 13.75 131.693 13.2955H136.057C136.04 14.4489 135.776 15.4545 135.264 16.3125C134.753 17.1648 134.028 17.8239 133.091 18.2898C132.159 18.7557 131.045 18.9886 129.75 18.9886ZM141.046 18.9545C140.21 18.9545 139.472 18.8182 138.83 18.5455C138.193 18.267 137.693 17.8466 137.33 17.2841C136.966 16.7216 136.784 16.0057 136.784 15.1364C136.784 14.4205 136.906 13.8097 137.151 13.304C137.395 12.7926 137.736 12.375 138.173 12.0511C138.611 11.7273 139.119 11.4801 139.699 11.3097C140.284 11.1392 140.915 11.0284 141.591 10.9773C142.324 10.9205 142.912 10.8523 143.355 10.7727C143.804 10.6875 144.128 10.571 144.327 10.4233C144.526 10.2699 144.625 10.0682 144.625 9.81818V9.78409C144.625 9.44318 144.494 9.18182 144.233 9C143.972 8.81818 143.636 8.72727 143.227 8.72727C142.779 8.72727 142.412 8.8267 142.128 9.02557C141.85 9.21875 141.682 9.51705 141.625 9.92045H137.296C137.352 9.125 137.605 8.39205 138.054 7.72159C138.509 7.04545 139.171 6.50568 140.04 6.10227C140.909 5.69318 141.994 5.48864 143.296 5.48864C144.233 5.48864 145.074 5.59943 145.818 5.82102C146.563 6.03693 147.196 6.34091 147.719 6.73295C148.242 7.11932 148.639 7.57386 148.912 8.09659C149.19 8.61364 149.33 9.17614 149.33 9.78409V18.75H144.932V16.9091H144.83C144.568 17.3977 144.25 17.7926 143.875 18.0938C143.506 18.3949 143.083 18.6136 142.605 18.75C142.134 18.8864 141.614 18.9545 141.046 18.9545ZM142.58 15.9886C142.938 15.9886 143.273 15.9148 143.585 15.767C143.904 15.6193 144.162 15.4062 144.361 15.1278C144.56 14.8494 144.659 14.5114 144.659 14.1136V13.0227C144.534 13.0739 144.401 13.1222 144.259 13.1676C144.122 13.2131 143.975 13.2557 143.815 13.2955C143.662 13.3352 143.497 13.3722 143.321 13.4062C143.151 13.4403 142.972 13.4716 142.784 13.5C142.421 13.5568 142.122 13.6506 141.889 13.7812C141.662 13.9062 141.492 14.0625 141.378 14.25C141.27 14.4318 141.216 14.6364 141.216 14.8636C141.216 15.2273 141.344 15.5057 141.6 15.6989C141.855 15.892 142.182 15.9886 142.58 15.9886ZM155.682 11.3864V18.75H150.978V5.65909H155.443V8.14773H155.58C155.864 7.31818 156.364 6.66761 157.08 6.19602C157.801 5.72443 158.642 5.48864 159.603 5.48864C160.529 5.48864 161.333 5.7017 162.014 6.12784C162.702 6.5483 163.233 7.12784 163.608 7.86648C163.989 8.60511 164.176 9.44886 164.171 10.3977V18.75H159.466V11.3864C159.472 10.7386 159.307 10.2301 158.972 9.8608C158.642 9.49148 158.182 9.30682 157.591 9.30682C157.205 9.30682 156.867 9.39205 156.577 9.5625C156.293 9.72727 156.074 9.96591 155.921 10.2784C155.767 10.5852 155.688 10.9545 155.682 11.3864Z" fill="#B7000C"/>
</svg>
